<svg width="189" height="35" viewBox="0 0 189 35" fill="none" xmlns="http://www.w3.org/2000/svg">
<g opacity="0.7">
<path d="M49.2502 27.123C47.8151 27.123 46.4825 26.9077 45.2524 26.4772C44.0428 26.0262 43.0997 25.4624 42.4232 24.7858C42.1156 24.4578 41.9824 24.0888 42.0234 23.6787C42.0849 23.2482 42.2899 22.8997 42.6384 22.6331C43.0485 22.3051 43.4482 22.1719 43.8378 22.2334C44.2478 22.2744 44.5963 22.4486 44.8834 22.7561C45.2319 23.1457 45.7854 23.5147 46.544 23.8632C47.3231 24.1913 48.1841 24.3553 49.1272 24.3553C50.3163 24.3553 51.2184 24.1605 51.8334 23.771C52.469 23.3815 52.797 22.8792 52.8175 22.2641C52.838 21.6491 52.5407 21.116 51.9257 20.665C51.3311 20.2139 50.2343 19.8449 48.6352 19.5579C46.5645 19.1479 45.0576 18.5328 44.1145 17.7127C43.192 16.8927 42.7307 15.8881 42.7307 14.699C42.7307 13.6534 43.0382 12.7923 43.6533 12.1158C44.2683 11.4187 45.0576 10.9062 46.0212 10.5781C46.9848 10.2296 47.9894 10.0554 49.0349 10.0554C50.3881 10.0554 51.5874 10.2706 52.633 10.7012C53.6786 11.1317 54.5089 11.7262 55.124 12.4848C55.411 12.8128 55.5442 13.1614 55.5237 13.5304C55.5032 13.8789 55.329 14.1762 55.0009 14.4222C54.6729 14.6477 54.2834 14.7195 53.8323 14.6375C53.3813 14.5555 53.002 14.371 52.6945 14.0839C52.182 13.5919 51.6284 13.2536 51.0339 13.0691C50.4393 12.8846 49.7525 12.7923 48.9734 12.7923C48.0714 12.7923 47.3026 12.9461 46.667 13.2536C46.052 13.5611 45.7444 14.0122 45.7444 14.6067C45.7444 14.9758 45.8367 15.314 46.0212 15.6216C46.2262 15.9086 46.6157 16.1751 47.1898 16.4211C47.7638 16.6466 48.6044 16.8722 49.7115 17.0977C52.0282 17.5487 53.6273 18.1945 54.5089 19.0351C55.411 19.8552 55.862 20.87 55.862 22.0796C55.862 23.0227 55.6057 23.8735 55.0932 24.6321C54.6012 25.3906 53.8631 25.9954 52.879 26.4465C51.9154 26.8975 50.7058 27.123 49.2502 27.123ZM67.4548 27.123C65.8146 27.123 64.3488 26.754 63.0571 26.0159C61.786 25.2574 60.7815 24.2425 60.0434 22.9714C59.3258 21.6798 58.9671 20.2242 58.9671 18.6046C58.9671 16.9439 59.3258 15.4678 60.0434 14.1762C60.761 12.8846 61.745 11.88 62.9956 11.1624C64.2462 10.4244 65.6814 10.0554 67.301 10.0554C69.7202 10.0554 71.7294 10.9779 73.3285 12.8231C73.6155 13.1511 73.718 13.4894 73.636 13.8379C73.554 14.1864 73.3285 14.494 72.9595 14.7605C72.6724 14.9655 72.3547 15.0373 72.0061 14.9758C71.6576 14.8937 71.3398 14.7092 71.0528 14.4222C70.0482 13.3561 68.7976 12.8231 67.301 12.8231C65.7224 12.8231 64.441 13.3561 63.4569 14.4222C62.4728 15.4678 61.9808 16.8619 61.9808 18.6046C61.9808 19.7116 62.2063 20.6957 62.6574 21.5568C63.1289 22.4179 63.7747 23.1047 64.5948 23.6172C65.4148 24.1093 66.3682 24.3553 67.4548 24.3553C68.8489 24.3553 69.9765 23.9965 70.8375 23.2789C71.1656 23.0124 71.5038 22.8689 71.8524 22.8484C72.2009 22.8074 72.5084 22.8997 72.7749 23.1252C73.1235 23.4122 73.3182 23.7402 73.3592 24.1093C73.4003 24.4578 73.2772 24.7756 72.9902 25.0626C71.5141 26.4362 69.6689 27.123 67.4548 27.123ZM79.8353 27C78.8102 27 78.2977 26.4875 78.2977 25.4624V11.716C78.2977 10.6909 78.8102 10.1784 79.8353 10.1784C80.8604 10.1784 81.3729 10.6909 81.3729 11.716V12.3003C81.988 11.5827 82.7363 11.0189 83.6179 10.6089C84.5199 10.1989 85.4938 9.99384 86.5394 9.99384C87.7695 9.99384 88.6818 10.1989 89.2763 10.6089C89.8914 10.9984 90.1272 11.47 89.9836 12.0235C89.8811 12.454 89.6761 12.7411 89.3686 12.8846C89.0611 13.0076 88.7023 13.0281 88.2923 12.9461C86.9801 12.6796 85.8013 12.6591 84.7557 12.8846C83.7101 13.1101 82.8798 13.5304 82.2648 14.1454C81.6702 14.7605 81.3729 15.5396 81.3729 16.4826V25.4624C81.3729 26.4875 80.8604 27 79.8353 27ZM95.1294 27C94.6784 27 94.2991 26.8565 93.9916 26.5695C93.7045 26.2619 93.561 25.8827 93.561 25.4316V11.7467C93.561 11.2752 93.7045 10.8959 93.9916 10.6089C94.2991 10.3219 94.6784 10.1784 95.1294 10.1784C95.6009 10.1784 95.9802 10.3219 96.2672 10.6089C96.5543 10.8959 96.6978 11.2752 96.6978 11.7467V25.4316C96.6978 25.8827 96.5543 26.2619 96.2672 26.5695C95.9802 26.8565 95.6009 27 95.1294 27ZM95.1294 7.44138C94.5759 7.44138 94.0941 7.24662 93.684 6.85708C93.2945 6.44705 93.0997 5.96526 93.0997 5.41172C93.0997 4.85817 93.2945 4.38663 93.684 3.9971C94.0941 3.58707 94.5759 3.38205 95.1294 3.38205C95.683 3.38205 96.1545 3.58707 96.544 3.9971C96.9541 4.38663 97.1591 4.85817 97.1591 5.41172C97.1591 5.96526 96.9541 6.44705 96.544 6.85708C96.1545 7.24662 95.683 7.44138 95.1294 7.44138ZM104.102 34.1961C103.651 34.1961 103.271 34.0423 102.964 33.7348C102.677 33.4478 102.533 33.0788 102.533 32.6277V18.6046C102.554 16.9849 102.933 15.5293 103.671 14.2377C104.409 12.9461 105.414 11.9313 106.685 11.1932C107.956 10.4346 109.391 10.0554 110.99 10.0554C112.61 10.0554 114.055 10.4346 115.326 11.1932C116.597 11.9313 117.602 12.9461 118.34 14.2377C119.099 15.5293 119.478 16.9849 119.478 18.6046C119.478 20.2242 119.129 21.6798 118.432 22.9714C117.756 24.2425 116.823 25.2574 115.634 26.0159C114.445 26.754 113.102 27.123 111.605 27.123C110.396 27.123 109.278 26.877 108.253 26.3849C107.249 25.8724 106.388 25.1856 105.67 24.3245V32.6277C105.67 33.0788 105.527 33.4478 105.24 33.7348C104.953 34.0423 104.573 34.1961 104.102 34.1961ZM110.99 24.3553C112.036 24.3553 112.969 24.1093 113.789 23.6172C114.609 23.1047 115.255 22.4179 115.726 21.5568C116.218 20.6752 116.464 19.6911 116.464 18.6046C116.464 17.4975 116.218 16.5134 115.726 15.6523C115.255 14.7707 114.609 14.0839 113.789 13.5919C112.969 13.0793 112.036 12.8231 110.99 12.8231C109.965 12.8231 109.032 13.0793 108.192 13.5919C107.372 14.0839 106.726 14.7707 106.254 15.6523C105.783 16.5134 105.547 17.4975 105.547 18.6046C105.547 19.6911 105.783 20.6752 106.254 21.5568C106.726 22.4179 107.372 23.1047 108.192 23.6172C109.032 24.1093 109.965 24.3553 110.99 24.3553Z" fill="#1B5299"/>
<path d="M130.276 27C129.251 27 128.328 26.7437 127.508 26.2312C126.688 25.6981 126.042 24.9806 125.571 24.0785C125.099 23.1764 124.864 22.1616 124.864 21.034V13.4381H123.449C123.018 13.4381 122.67 13.3151 122.403 13.0691C122.137 12.8231 122.004 12.5156 122.004 12.1465C122.004 11.7365 122.137 11.4085 122.403 11.1624C122.67 10.9164 123.018 10.7934 123.449 10.7934H124.864V6.36505C124.864 5.91401 125.007 5.54498 125.294 5.25795C125.581 4.97093 125.95 4.82742 126.401 4.82742C126.852 4.82742 127.221 4.97093 127.508 5.25795C127.795 5.54498 127.939 5.91401 127.939 6.36505V10.7934H130.553C130.983 10.7934 131.332 10.9164 131.598 11.1624C131.865 11.4085 131.998 11.7365 131.998 12.1465C131.998 12.5156 131.865 12.8231 131.598 13.0691C131.332 13.3151 130.983 13.4381 130.553 13.4381H127.939V21.034C127.939 21.8541 128.164 22.5409 128.615 23.0944C129.066 23.648 129.62 23.9247 130.276 23.9247H131.322C131.691 23.9247 131.998 24.0683 132.244 24.3553C132.511 24.6423 132.644 25.0113 132.644 25.4624C132.644 25.9134 132.47 26.2824 132.121 26.5695C131.793 26.8565 131.363 27 130.83 27H130.276ZM143.511 27.123C142.014 27.123 140.671 26.754 139.482 26.0159C138.293 25.2574 137.35 24.2425 136.653 22.9714C135.976 21.6798 135.638 20.2242 135.638 18.6046C135.638 16.9849 136.007 15.5293 136.745 14.2377C137.504 12.9461 138.519 11.9313 139.79 11.1932C141.081 10.4346 142.527 10.0554 144.126 10.0554C145.725 10.0554 147.16 10.4346 148.431 11.1932C149.702 11.9313 150.707 12.9461 151.445 14.2377C152.204 15.5293 152.583 16.9849 152.583 18.6046V25.4624C152.583 25.9134 152.429 26.2927 152.122 26.6002C151.835 26.8872 151.465 27.0308 151.014 27.0308C150.563 27.0308 150.184 26.8872 149.877 26.6002C149.59 26.2927 149.446 25.9134 149.446 25.4624V24.3245C148.729 25.1856 147.857 25.8724 146.832 26.3849C145.828 26.877 144.72 27.123 143.511 27.123ZM144.126 24.3553C145.171 24.3553 146.104 24.1093 146.924 23.6172C147.744 23.1047 148.39 22.4179 148.862 21.5568C149.333 20.6752 149.569 19.6911 149.569 18.6046C149.569 17.4975 149.333 16.5134 148.862 15.6523C148.39 14.7707 147.744 14.0839 146.924 13.5919C146.104 13.0793 145.171 12.8231 144.126 12.8231C143.101 12.8231 142.168 13.0793 141.327 13.5919C140.507 14.0839 139.851 14.7707 139.359 15.6523C138.888 16.5134 138.652 17.4975 138.652 18.6046C138.652 19.6911 138.888 20.6752 139.359 21.5568C139.851 22.4179 140.507 23.1047 141.327 23.6172C142.168 24.1093 143.101 24.3553 144.126 24.3553ZM163.371 27.123C161.936 27.123 160.603 26.9077 159.373 26.4772C158.164 26.0262 157.22 25.4624 156.544 24.7858C156.236 24.4578 156.103 24.0888 156.144 23.6787C156.206 23.2482 156.411 22.8997 156.759 22.6331C157.169 22.3051 157.569 22.1719 157.959 22.2334C158.369 22.2744 158.717 22.4486 159.004 22.7561C159.353 23.1457 159.906 23.5147 160.665 23.8632C161.444 24.1913 162.305 24.3553 163.248 24.3553C164.437 24.3553 165.339 24.1605 165.954 23.771C166.59 23.3815 166.918 22.8792 166.938 22.2641C166.959 21.6491 166.661 21.116 166.046 20.665C165.452 20.2139 164.355 19.8449 162.756 19.5579C160.685 19.1479 159.178 18.5328 158.235 17.7127C157.313 16.8927 156.851 15.8881 156.851 14.699C156.851 13.6534 157.159 12.7923 157.774 12.1158C158.389 11.4187 159.178 10.9062 160.142 10.5781C161.106 10.2296 162.11 10.0554 163.156 10.0554C164.509 10.0554 165.708 10.2706 166.754 10.7012C167.799 11.1317 168.63 11.7262 169.245 12.4848C169.532 12.8128 169.665 13.1614 169.644 13.5304C169.624 13.8789 169.45 14.1762 169.122 14.4222C168.794 14.6477 168.404 14.7195 167.953 14.6375C167.502 14.5555 167.123 14.371 166.815 14.0839C166.303 13.5919 165.749 13.2536 165.155 13.0691C164.56 12.8846 163.873 12.7923 163.094 12.7923C162.192 12.7923 161.423 12.9461 160.788 13.2536C160.173 13.5611 159.865 14.0122 159.865 14.6067C159.865 14.9758 159.957 15.314 160.142 15.6216C160.347 15.9086 160.737 16.1751 161.311 16.4211C161.885 16.6466 162.725 16.8722 163.832 17.0977C166.149 17.5487 167.748 18.1945 168.63 19.0351C169.532 19.8552 169.983 20.87 169.983 22.0796C169.983 23.0227 169.726 23.8735 169.214 24.6321C168.722 25.3906 167.984 25.9954 167 26.4465C166.036 26.8975 164.827 27.123 163.371 27.123ZM175.456 27C175.005 27 174.636 26.8667 174.349 26.6002C174.082 26.3132 173.949 25.9442 173.949 25.4931V4.48914C173.949 4.0381 174.082 3.67932 174.349 3.4128C174.636 3.12578 175.005 2.98227 175.456 2.98227C175.907 2.98227 176.266 3.12578 176.532 3.4128C176.819 3.67932 176.963 4.0381 176.963 4.48914V17.0054L184.435 10.3321C184.743 10.0451 185.081 9.91184 185.45 9.93234C185.84 9.95284 186.168 10.1169 186.434 10.4244C186.721 10.7319 186.855 11.0702 186.834 11.4392C186.814 11.8082 186.65 12.1363 186.342 12.4233L180.684 17.4667L186.65 24.7858C186.916 25.1138 187.029 25.4726 186.988 25.8622C186.967 26.2312 186.783 26.5592 186.434 26.8462C186.106 27.1128 185.737 27.2255 185.327 27.1845C184.938 27.164 184.61 26.9897 184.343 26.6617L178.5 19.4349L176.963 20.788V25.4931C176.963 25.9442 176.819 26.3132 176.532 26.6002C176.266 26.8667 175.907 27 175.456 27Z" fill="#4F4F4F"/>
<g clip-path="url(#clip0_1_8)">
<path d="M10.017 14.1335L7.64009 16.4655L15.2802 23.9615L32.2581 7.30383L29.8812 4.97176L15.2802 19.2973L10.017 14.1335ZM30.5603 17.2984C30.5603 24.6278 24.4483 30.6245 16.978 30.6245C9.50766 30.6245 3.39559 24.6278 3.39559 17.2984C3.39559 9.96905 9.50766 3.9723 16.978 3.9723C18.3362 3.9723 19.5247 4.13888 20.7131 4.47203L23.4297 1.80681C21.3922 1.14051 19.1851 0.640778 16.978 0.640778C7.64009 0.640778 0 8.13671 0 17.2984C0 26.4601 7.64009 33.956 16.978 33.956C26.3158 33.956 33.9559 26.4601 33.9559 17.2984H30.5603Z" fill="#4F4F4F"/>
</g>
</g>
<defs>
<clipPath id="clip0_1_8">
<rect width="33.9559" height="33.3153" fill="white" transform="translate(0 0.640778)"/>
</clipPath>
</defs>
</svg>
